<svg width="496" height="183" viewBox="0 0 496 183" fill="none" xmlns="http://www.w3.org/2000/svg">
<style type="text/css">
    .title { fill: #3E3E3E; }
    .title-w { fill: #35849A; }
    .lightning { fill: #F7D94B; }
    .subtitles { fill: #888888; }
    @media (prefers-color-scheme: dark) {
        .title { fill: #EEEEEE; }
        .title-w { fill: #63A4BD; }
        .lightning { fill: #F2DA65; }
        .subtitles { fill: rgba(235, 235, 245, 0.6); }
    }
</style>
<rect width="496" height="183" fill="transparent"/>
<path class="title-w" d="M191.7 122.2C189.2 117.9 186.6 113.5 184.1 109.2C183.9 108.9 183.8 108.6 183.9 108.1C186.4 100.5 188.9 92.8 191.4 85.2C191.4 85.1 191.5 84.9 191.6 84.6C194.5 90.3 197.3 95.9 200.2 101.6C200.4 101.2 200.5 100.9 200.6 100.6C204.5 88.6 208.4 76.7 212.3 64.7C212.5 64.2 212.7 64 213.2 64.1C216.7 64.1 220.2 64.1 223.8 64.1C224.4 64.1 224.6 64.3 224.8 64.8C228.4 76.7 232 88.5 235.6 100.4C235.7 100.7 235.8 101.1 236 101.6C236.5 100.6 236.9 99.6 237.2 98.7C242.1 87.3 246.9 76 251.8 64.6C251.9 64.3 252 64.1 252.4 64.1C257.4 64.1 262.4 64.1 267.3 64.1C267.3 64.1 267.4 64.1 267.5 64.1C266.9 65.5 266.4 66.8 265.9 68.2C258.7 85.9 251.6 103.7 244.4 121.4C244.3 121.6 244.1 121.8 244.2 122.1C239 122.1 233.8 122.1 228.6 122.1C228.7 121.9 228.6 121.6 228.5 121.4C228.1 120.1 227.7 118.8 227.3 117.5C224.3 108 221.4 98.6 218.4 89.1C218.4 88.9 218.4 88.7 218.1 88.6C214.4 99.7 210.8 110.9 207.1 122C201.9 122.2 196.8 122.2 191.7 122.2Z" />
<path class="title" d="M144.1 122.2C144.1 103.1 144.1 84 144.1 64.9C144.1 64.3 144.2 64.1 144.9 64.1C153 64.1 161.1 64.1 169.2 64.1C173.7 64.1 177.9 65.1 181.5 67.9C183 69 184.3 70.4 185.4 72C185.6 72.3 185.6 72.5 185.5 72.8C182.5 82.1 179.4 91.5 176.4 100.8C176.3 101.2 176.1 101.3 175.7 101.4C173.6 101.9 171.4 102.2 169.2 102.2C165.9 102.2 162.7 102.2 159.4 102.2C159 102.2 158.9 102.2 158.9 102.7C158.9 109.1 158.9 115.6 158.9 122V122.1C154 122.2 149 122.2 144.1 122.2ZM158.9 83.1C158.9 85.5 158.9 87.9 158.9 90.4C158.9 90.9 159 91 159.5 91C160.7 91 162 91 163.2 91C164.9 91 166.6 91 168.3 90.6C169.8 90.2 171.2 89.7 172.1 88.4C174 85.7 174.2 82.7 173 79.7C172 77 169.7 75.9 167 75.6C164.5 75.3 162 75.5 159.5 75.4C159 75.4 158.9 75.6 158.9 76C158.9 78.4 158.9 80.8 158.9 83.1Z" />
<path class="title" d="M282.3 122.2C281.8 120.5 281.1 118.8 280.5 117.1C279.9 115.5 279.4 114 278.8 112.4C278.6 112 278.4 111.8 278 111.8C271.5 111.8 265 111.8 258.4 111.8C257.7 111.8 257.7 111.8 257.9 111.1C259.2 107.8 260.6 104.4 261.9 101.1C262.1 100.7 262.3 100.5 262.8 100.5C266.7 100.5 270.5 100.5 274.4 100.5C274.9 100.5 275 100.4 274.9 99.9C273 94.6 271.1 89.2 269.2 83.9C269.1 83.6 269.1 83.3 269.2 83C271.7 76.8 274.1 70.6 276.6 64.4C276.6 64.3 276.7 64.3 276.7 64.2C277 64.3 276.9 64.5 277 64.7C284 83.2 291 101.8 298 120.3C298.2 120.8 298.3 121.4 298.7 121.9C298.7 122 298.8 122.2 298.5 122.2C298 122.2 297.5 122.2 297 122.2C292 122.2 287.2 122.2 282.3 122.2Z" />
<path class="lightning" d="M434.5 77.2H428L437.1 59V69.4H443.6L434.5 87.6V77.2Z" />
<path class="subtitles" d="M71.2012 83V81.4979L80.6614 68.5646V68.4261H71.606V66.6364H83.101V68.2024L73.8113 81.0717V81.2102H83.4419V83H71.2012ZM93.7678 83.3409C92.2408 83.3409 90.9197 82.9858 89.8047 82.2756C88.6896 81.5582 87.8267 80.5675 87.2159 79.3033C86.6122 78.032 86.3104 76.5689 86.3104 74.9141C86.3104 73.2663 86.6122 71.8033 87.2159 70.5249C87.8267 69.2393 88.6683 68.2344 89.7408 67.5099C90.8203 66.7784 92.0668 66.4126 93.4801 66.4126C94.3679 66.4126 95.2237 66.576 96.0476 66.9027C96.8714 67.2223 97.6101 67.7159 98.2635 68.3835C98.924 69.044 99.446 69.8786 99.8295 70.8871C100.213 71.8885 100.405 73.0746 100.405 74.4453V75.3828H87.6207V73.7102H98.4659C98.4659 72.6591 98.2528 71.7145 97.8267 70.8764C97.4077 70.0312 96.8217 69.3636 96.0689 68.8736C95.3232 68.3835 94.4602 68.1385 93.4801 68.1385C92.4432 68.1385 91.5305 68.4155 90.7422 68.9695C89.9538 69.5234 89.3359 70.255 88.8885 71.1641C88.4482 72.0732 88.2244 73.0675 88.2173 74.147V75.1484C88.2173 76.4482 88.4411 77.5845 88.8885 78.5575C89.343 79.5234 89.9858 80.2727 90.8168 80.8054C91.6477 81.3381 92.6314 81.6044 93.7678 81.6044C94.5419 81.6044 95.2202 81.4837 95.8026 81.2422C96.392 81.0007 96.8857 80.6776 97.2834 80.2727C97.6882 79.8608 97.9936 79.4098 98.1996 78.9197L100 79.5057C99.7514 80.1946 99.343 80.8303 98.7749 81.4126C98.2138 81.995 97.5107 82.4638 96.6655 82.8189C95.8274 83.1669 94.8615 83.3409 93.7678 83.3409ZM104.584 83V66.6364H106.427V69.1506H106.565C106.892 68.3267 107.46 67.6626 108.27 67.1584C109.086 66.647 110.01 66.3913 111.04 66.3913C111.196 66.3913 111.37 66.3949 111.562 66.402C111.753 66.4091 111.913 66.4162 112.041 66.4233V68.3516C111.956 68.3374 111.807 68.3161 111.594 68.2876C111.381 68.2592 111.15 68.245 110.901 68.245C110.049 68.245 109.289 68.4261 108.621 68.7884C107.961 69.1435 107.439 69.6371 107.055 70.2692C106.672 70.9013 106.48 71.6222 106.48 72.4318V83H104.584ZM121.139 83.3409C119.726 83.3409 118.476 82.9822 117.389 82.2649C116.309 81.5476 115.464 80.5568 114.854 79.2926C114.243 78.0213 113.937 76.5547 113.937 74.8928C113.937 73.2166 114.243 71.7429 114.854 70.4716C115.464 69.1932 116.309 68.1989 117.389 67.4886C118.476 66.7713 119.726 66.4126 121.139 66.4126C122.552 66.4126 123.799 66.7713 124.878 67.4886C125.958 68.206 126.803 69.2003 127.414 70.4716C128.032 71.7429 128.341 73.2166 128.341 74.8928C128.341 76.5547 128.035 78.0213 127.425 79.2926C126.814 80.5568 125.965 81.5476 124.878 82.2649C123.799 82.9822 122.552 83.3409 121.139 83.3409ZM121.139 81.6044C122.275 81.6044 123.238 81.299 124.026 80.6882C124.814 80.0774 125.411 79.2642 125.816 78.2486C126.228 77.233 126.434 76.1143 126.434 74.8928C126.434 73.6712 126.228 72.549 125.816 71.5263C125.411 70.5036 124.814 69.6832 124.026 69.0653C123.238 68.4474 122.275 68.1385 121.139 68.1385C120.01 68.1385 119.047 68.4474 118.252 69.0653C117.464 69.6832 116.863 70.5036 116.452 71.5263C116.047 72.549 115.844 73.6712 115.844 74.8928C115.844 76.1143 116.047 77.233 116.452 78.2486C116.863 79.2642 117.464 80.0774 118.252 80.6882C119.04 81.299 120.003 81.6044 121.139 81.6044ZM51.6202 117.341C50.1571 117.341 48.8823 116.975 47.7956 116.244C46.7161 115.512 45.878 114.511 45.2814 113.239C44.6848 111.968 44.3865 110.519 44.3865 108.893C44.3865 107.252 44.6884 105.793 45.2921 104.514C45.9029 103.236 46.748 102.234 47.8276 101.51C48.9071 100.778 50.1607 100.413 51.5882 100.413C52.682 100.413 53.6728 100.626 54.5605 101.052C55.4483 101.471 56.1799 102.064 56.7551 102.831C57.3375 103.591 57.7033 104.479 57.8525 105.494H55.9348C55.736 104.571 55.2566 103.783 54.4966 103.129C53.7438 102.469 52.785 102.138 51.6202 102.138C50.5762 102.138 49.6529 102.423 48.8503 102.991C48.0478 103.552 47.4192 104.337 46.9647 105.345C46.5172 106.347 46.2935 107.508 46.2935 108.829C46.2935 110.157 46.5137 111.332 46.954 112.355C47.3944 113.371 48.0123 114.166 48.8077 114.741C49.6103 115.317 50.5478 115.604 51.6202 115.604C52.3446 115.604 53.0051 115.469 53.6017 115.2C54.2054 114.923 54.7097 114.532 55.1145 114.028C55.5265 113.523 55.8034 112.923 55.9455 112.227H57.8631C57.7211 113.214 57.3695 114.095 56.8084 114.869C56.2544 115.636 55.5336 116.24 54.6458 116.68C53.7651 117.121 52.7566 117.341 51.6202 117.341ZM68.2875 117.341C66.8741 117.341 65.6241 116.982 64.5375 116.265C63.4579 115.548 62.6127 114.557 62.002 113.293C61.3912 112.021 61.0858 110.555 61.0858 108.893C61.0858 107.217 61.3912 105.743 62.002 104.472C62.6127 103.193 63.4579 102.199 64.5375 101.489C65.6241 100.771 66.8741 100.413 68.2875 100.413C69.7008 100.413 70.9473 100.771 72.0268 101.489C73.1064 102.206 73.9515 103.2 74.5623 104.472C75.1802 105.743 75.4892 107.217 75.4892 108.893C75.4892 110.555 75.1838 112.021 74.573 113.293C73.9622 114.557 73.1135 115.548 72.0268 116.265C70.9473 116.982 69.7008 117.341 68.2875 117.341ZM68.2875 115.604C69.4238 115.604 70.3862 115.299 71.1745 114.688C71.9629 114.077 72.5595 113.264 72.9643 112.249C73.3762 111.233 73.5822 110.114 73.5822 108.893C73.5822 107.671 73.3762 106.549 72.9643 105.526C72.5595 104.504 71.9629 103.683 71.1745 103.065C70.3862 102.447 69.4238 102.138 68.2875 102.138C67.1582 102.138 66.1958 102.447 65.4004 103.065C64.612 103.683 64.0119 104.504 63.6 105.526C63.1951 106.549 62.9927 107.671 62.9927 108.893C62.9927 110.114 63.1951 111.233 63.6 112.249C64.0119 113.264 64.612 114.077 65.4004 114.688C66.1887 115.299 67.1511 115.604 68.2875 115.604ZM81.5483 106.773V117H79.652V100.636H81.495V103.204H81.6655C82.049 102.366 82.6456 101.695 83.4553 101.19C84.272 100.679 85.2805 100.423 86.4808 100.423C87.5817 100.423 88.5476 100.654 89.3786 101.116C90.2166 101.57 90.8665 102.241 91.3281 103.129C91.7969 104.017 92.0312 105.107 92.0312 106.4V117H90.1349V106.517C90.1349 105.175 89.7585 104.113 89.0057 103.332C88.2599 102.55 87.2585 102.16 86.0014 102.16C85.142 102.16 84.3786 102.344 83.7109 102.714C83.0433 103.083 82.5142 103.616 82.1236 104.312C81.7401 105.001 81.5483 105.821 81.5483 106.773ZM103.758 100.636V102.288H95.7147V100.636H103.758ZM98.2289 117V98.2393C98.2289 97.3587 98.4313 96.6165 98.8361 96.0128C99.248 95.4091 99.7843 94.951 100.445 94.6385C101.105 94.326 101.805 94.1697 102.544 94.1697C103.041 94.1697 103.453 94.2124 103.779 94.2976C104.113 94.3757 104.376 94.4538 104.568 94.532L104.014 96.1939C103.872 96.1513 103.698 96.1016 103.492 96.0447C103.286 95.9879 103.026 95.9595 102.714 95.9595C101.89 95.9595 101.254 96.1903 100.807 96.652C100.36 97.1136 100.136 97.7741 100.136 98.6335L100.125 117H98.2289ZM107.564 117V100.636H109.471V117H107.564ZM108.533 97.8239C108.143 97.8239 107.809 97.6925 107.532 97.4297C107.255 97.1598 107.116 96.8366 107.116 96.4602C107.116 96.0838 107.255 95.7642 107.532 95.5014C107.809 95.2315 108.143 95.0966 108.533 95.0966C108.924 95.0966 109.258 95.2315 109.535 95.5014C109.812 95.7642 109.95 96.0838 109.95 96.4602C109.95 96.8366 109.812 97.1598 109.535 97.4297C109.258 97.6925 108.924 97.8239 108.533 97.8239ZM120.729 123.477C119.614 123.477 118.637 123.332 117.799 123.04C116.961 122.756 116.254 122.366 115.679 121.869C115.104 121.371 114.656 120.814 114.337 120.196L115.892 119.173C116.127 119.585 116.439 119.99 116.83 120.388C117.227 120.786 117.742 121.116 118.374 121.379C119.014 121.641 119.798 121.773 120.729 121.773C122.178 121.773 123.346 121.411 124.234 120.686C125.129 119.962 125.576 118.836 125.576 117.309V113.623H125.406C125.186 114.12 124.869 114.617 124.458 115.114C124.046 115.604 123.506 116.013 122.838 116.339C122.178 116.666 121.357 116.83 120.377 116.83C119.07 116.83 117.909 116.506 116.894 115.86C115.885 115.214 115.09 114.29 114.507 113.09C113.932 111.883 113.644 110.445 113.644 108.776C113.644 107.121 113.925 105.665 114.486 104.408C115.054 103.151 115.846 102.17 116.862 101.467C117.877 100.764 119.06 100.413 120.409 100.413C121.411 100.413 122.242 100.59 122.902 100.945C123.563 101.293 124.092 101.727 124.49 102.245C124.894 102.763 125.21 103.268 125.438 103.758H125.629V100.636H127.483V117.426C127.483 118.811 127.188 119.951 126.599 120.846C126.009 121.741 125.207 122.401 124.191 122.827C123.176 123.261 122.021 123.477 120.729 123.477ZM120.601 115.093C121.652 115.093 122.551 114.841 123.296 114.337C124.042 113.825 124.614 113.094 125.012 112.142C125.409 111.19 125.608 110.058 125.608 108.744C125.608 107.465 125.413 106.332 125.022 105.345C124.632 104.351 124.063 103.57 123.318 103.001C122.579 102.426 121.673 102.138 120.601 102.138C119.507 102.138 118.584 102.433 117.831 103.023C117.078 103.612 116.51 104.408 116.127 105.409C115.743 106.403 115.551 107.515 115.551 108.744C115.551 109.994 115.747 111.098 116.137 112.057C116.528 113.009 117.1 113.754 117.852 114.294C118.605 114.827 119.521 115.093 120.601 115.093Z" />
<path class="subtitles" d="M316.074 83.3729C315.087 83.3729 314.185 83.1811 313.368 82.7976C312.551 82.407 311.901 81.8459 311.418 81.1143C310.935 80.3757 310.694 79.4808 310.694 78.4297C310.694 77.62 310.847 76.9382 311.152 76.3842C311.457 75.8303 311.891 75.3757 312.452 75.0206C313.013 74.6655 313.677 74.3849 314.444 74.179C315.211 73.973 316.056 73.8132 316.979 73.6996C317.896 73.5859 318.67 73.4865 319.302 73.4013C319.941 73.3161 320.428 73.1811 320.761 72.9964C321.095 72.8118 321.262 72.5135 321.262 72.1016V71.718C321.262 70.603 320.928 69.7259 320.261 69.0866C319.6 68.4403 318.648 68.1172 317.406 68.1172C316.227 68.1172 315.264 68.3764 314.518 68.8949C313.78 69.4134 313.261 70.0241 312.963 70.7273L311.163 70.0774C311.532 69.1825 312.043 68.4687 312.697 67.9361C313.35 67.3963 314.082 67.0092 314.891 66.7749C315.701 66.5334 316.521 66.4126 317.352 66.4126C317.977 66.4126 318.627 66.4943 319.302 66.6577C319.984 66.821 320.616 67.1051 321.198 67.5099C321.781 67.9077 322.253 68.4652 322.615 69.1825C322.977 69.8928 323.158 70.7947 323.158 71.8885V83H321.262V80.4112H321.145C320.918 80.8942 320.58 81.3629 320.133 81.8175C319.685 82.272 319.124 82.6449 318.45 82.9361C317.775 83.2273 316.983 83.3729 316.074 83.3729ZM316.33 81.6364C317.338 81.6364 318.212 81.4126 318.95 80.9652C319.689 80.5178 320.257 79.9247 320.655 79.1861C321.06 78.4403 321.262 77.62 321.262 76.7251V74.3601C321.12 74.495 320.882 74.6158 320.548 74.7223C320.222 74.8288 319.842 74.9247 319.408 75.0099C318.982 75.0881 318.556 75.1555 318.13 75.2124C317.704 75.2692 317.32 75.3189 316.979 75.3615C316.056 75.4751 315.268 75.6527 314.614 75.8942C313.961 76.1357 313.46 76.4695 313.112 76.8956C312.764 77.3146 312.59 77.8544 312.59 78.5149C312.59 79.5092 312.945 80.2798 313.656 80.8267C314.366 81.3665 315.257 81.6364 316.33 81.6364ZM339.197 70.2266L337.461 70.7166C337.29 70.2266 337.049 69.7827 336.736 69.3849C336.424 68.9872 336.015 68.6712 335.511 68.4368C335.014 68.2024 334.396 68.0852 333.657 68.0852C332.549 68.0852 331.64 68.348 330.93 68.8736C330.22 69.3991 329.865 70.0774 329.865 70.9084C329.865 71.6115 330.106 72.1832 330.589 72.6236C331.079 73.0568 331.832 73.4013 332.848 73.657L335.319 74.2642C336.69 74.598 337.716 75.1271 338.398 75.8516C339.087 76.576 339.431 77.4851 339.431 78.5788C339.431 79.5021 339.176 80.3224 338.664 81.0398C338.153 81.7571 337.439 82.3217 336.523 82.7337C335.614 83.1385 334.559 83.3409 333.359 83.3409C331.761 83.3409 330.444 82.9822 329.407 82.2649C328.37 81.5405 327.706 80.4964 327.414 79.1328L329.236 78.6854C329.471 79.6584 329.929 80.3935 330.61 80.8906C331.299 81.3878 332.205 81.6364 333.327 81.6364C334.584 81.6364 335.589 81.3558 336.342 80.7947C337.095 80.2266 337.471 79.5163 337.471 78.6641C337.471 78.0036 337.251 77.4496 336.811 77.0021C336.37 76.5476 335.703 76.2138 334.808 76.0007L332.134 75.3615C330.713 75.0206 329.662 74.4808 328.98 73.7422C328.299 73.0036 327.958 72.0874 327.958 70.9936C327.958 70.0916 328.203 69.2997 328.693 68.6179C329.183 67.929 329.858 67.3892 330.717 66.9986C331.576 66.608 332.556 66.4126 333.657 66.4126C335.156 66.4126 336.353 66.7536 337.248 67.4354C338.15 68.1101 338.799 69.0405 339.197 70.2266ZM354.578 70.2266L352.841 70.7166C352.671 70.2266 352.43 69.7827 352.117 69.3849C351.805 68.9872 351.396 68.6712 350.892 68.4368C350.395 68.2024 349.777 68.0852 349.038 68.0852C347.93 68.0852 347.021 68.348 346.311 68.8736C345.601 69.3991 345.246 70.0774 345.246 70.9084C345.246 71.6115 345.487 72.1832 345.97 72.6236C346.46 73.0568 347.213 73.4013 348.229 73.657L350.7 74.2642C352.071 74.598 353.097 75.1271 353.779 75.8516C354.468 76.576 354.812 77.4851 354.812 78.5788C354.812 79.5021 354.557 80.3224 354.045 81.0398C353.534 81.7571 352.82 82.3217 351.904 82.7337C350.995 83.1385 349.94 83.3409 348.74 83.3409C347.142 83.3409 345.824 82.9822 344.787 82.2649C343.751 81.5405 343.086 80.4964 342.795 79.1328L344.617 78.6854C344.851 79.6584 345.309 80.3935 345.991 80.8906C346.68 81.3878 347.586 81.6364 348.708 81.6364C349.965 81.6364 350.97 81.3558 351.723 80.7947C352.476 80.2266 352.852 79.5163 352.852 78.6641C352.852 78.0036 352.632 77.4496 352.192 77.0021C351.751 76.5476 351.084 76.2138 350.189 76.0007L347.515 75.3615C346.094 75.0206 345.043 74.4808 344.361 73.7422C343.68 73.0036 343.339 72.0874 343.339 70.9936C343.339 70.0916 343.584 69.2997 344.074 68.6179C344.564 67.929 345.238 67.3892 346.098 66.9986C346.957 66.608 347.937 66.4126 349.038 66.4126C350.537 66.4126 351.733 66.7536 352.628 67.4354C353.53 68.1101 354.18 69.0405 354.578 70.2266ZM365.58 83.3409C364.053 83.3409 362.732 82.9858 361.617 82.2756C360.502 81.5582 359.639 80.5675 359.028 79.3033C358.425 78.032 358.123 76.5689 358.123 74.9141C358.123 73.2663 358.425 71.8033 359.028 70.5249C359.639 69.2393 360.481 68.2344 361.553 67.5099C362.633 66.7784 363.879 66.4126 365.293 66.4126C366.18 66.4126 367.036 66.576 367.86 66.9027C368.684 67.2223 369.423 67.7159 370.076 68.3835C370.737 69.044 371.259 69.8786 371.642 70.8871C372.026 71.8885 372.217 73.0746 372.217 74.4453V75.3828H359.433V73.7102H370.278C370.278 72.6591 370.065 71.7145 369.639 70.8764C369.22 70.0312 368.634 69.3636 367.881 68.8736C367.136 68.3835 366.273 68.1385 365.293 68.1385C364.256 68.1385 363.343 68.4155 362.555 68.9695C361.766 69.5234 361.148 70.255 360.701 71.1641C360.261 72.0732 360.037 73.0675 360.03 74.147V75.1484C360.03 76.4482 360.254 77.5845 360.701 78.5575C361.156 79.5234 361.798 80.2727 362.629 80.8054C363.46 81.3381 364.444 81.6044 365.58 81.6044C366.354 81.6044 367.033 81.4837 367.615 81.2422C368.205 81.0007 368.698 80.6776 369.096 80.2727C369.501 79.8608 369.806 79.4098 370.012 78.9197L371.812 79.5057C371.564 80.1946 371.156 80.8303 370.587 81.4126C370.026 81.995 369.323 82.4638 368.478 82.8189C367.64 83.1669 366.674 83.3409 365.58 83.3409ZM382.841 66.6364V68.2876H375.032V66.6364H382.841ZM377.472 62.7159H379.379V78.728C379.379 79.4098 379.496 79.946 379.731 80.3366C379.965 80.7202 380.27 80.9936 380.647 81.157C381.023 81.3132 381.425 81.3913 381.851 81.3913C382.099 81.3913 382.312 81.3771 382.49 81.3487C382.667 81.3132 382.824 81.2777 382.959 81.2422L383.363 82.9574C383.179 83.0284 382.952 83.0923 382.682 83.1491C382.412 83.2131 382.078 83.245 381.68 83.245C380.984 83.245 380.313 83.0923 379.667 82.7869C379.028 82.4815 378.502 82.027 378.09 81.4233C377.678 80.8196 377.472 80.0703 377.472 79.1754V62.7159ZM397.849 70.2266L396.113 70.7166C395.942 70.2266 395.701 69.7827 395.388 69.3849C395.076 68.9872 394.668 68.6712 394.163 68.4368C393.666 68.2024 393.048 68.0852 392.31 68.0852C391.202 68.0852 390.293 68.348 389.582 68.8736C388.872 69.3991 388.517 70.0774 388.517 70.9084C388.517 71.6115 388.759 72.1832 389.241 72.6236C389.732 73.0568 390.484 73.4013 391.5 73.657L393.972 74.2642C395.342 74.598 396.369 75.1271 397.05 75.8516C397.739 76.576 398.084 77.4851 398.084 78.5788C398.084 79.5021 397.828 80.3224 397.317 81.0398C396.805 81.7571 396.092 82.3217 395.175 82.7337C394.266 83.1385 393.212 83.3409 392.011 83.3409C390.413 83.3409 389.096 82.9822 388.059 82.2649C387.022 81.5405 386.358 80.4964 386.067 79.1328L387.888 78.6854C388.123 79.6584 388.581 80.3935 389.263 80.8906C389.952 81.3878 390.857 81.6364 391.979 81.6364C393.237 81.6364 394.241 81.3558 394.994 80.7947C395.747 80.2266 396.124 79.5163 396.124 78.6641C396.124 78.0036 395.903 77.4496 395.463 77.0021C395.023 76.5476 394.355 76.2138 393.46 76.0007L390.786 75.3615C389.366 75.0206 388.315 74.4808 387.633 73.7422C386.951 73.0036 386.61 72.0874 386.61 70.9936C386.61 70.0916 386.855 69.2997 387.345 68.6179C387.835 67.929 388.51 67.3892 389.369 66.9986C390.229 66.608 391.209 66.4126 392.31 66.4126C393.808 66.4126 395.005 66.7536 395.9 67.4354C396.802 68.1101 397.452 69.0405 397.849 70.2266ZM317.746 123.477C316.631 123.477 315.655 123.332 314.817 123.04C313.979 122.756 313.272 122.366 312.697 121.869C312.121 121.371 311.674 120.814 311.354 120.196L312.91 119.173C313.144 119.585 313.457 119.99 313.847 120.388C314.245 120.786 314.76 121.116 315.392 121.379C316.031 121.641 316.816 121.773 317.746 121.773C319.195 121.773 320.364 121.411 321.251 120.686C322.146 119.962 322.594 118.836 322.594 117.309V113.623H322.423C322.203 114.12 321.887 114.617 321.475 115.114C321.063 115.604 320.523 116.013 319.856 116.339C319.195 116.666 318.375 116.83 317.395 116.83C316.088 116.83 314.927 116.506 313.911 115.86C312.903 115.214 312.107 114.29 311.525 113.09C310.95 111.883 310.662 110.445 310.662 108.776C310.662 107.121 310.942 105.665 311.504 104.408C312.072 103.151 312.864 102.17 313.879 101.467C314.895 100.764 316.077 100.413 317.427 100.413C318.428 100.413 319.259 100.59 319.92 100.945C320.58 101.293 321.109 101.727 321.507 102.245C321.912 102.763 322.228 103.268 322.455 103.758H322.647V100.636H324.501V117.426C324.501 118.811 324.206 119.951 323.616 120.846C323.027 121.741 322.224 122.401 321.209 122.827C320.193 123.261 319.039 123.477 317.746 123.477ZM317.619 115.093C318.67 115.093 319.568 114.841 320.314 114.337C321.06 113.825 321.631 113.094 322.029 112.142C322.427 111.19 322.626 110.058 322.626 108.744C322.626 107.465 322.43 106.332 322.04 105.345C321.649 104.351 321.081 103.57 320.335 103.001C319.597 102.426 318.691 102.138 317.619 102.138C316.525 102.138 315.602 102.433 314.849 103.023C314.096 103.612 313.528 104.408 313.144 105.409C312.761 106.403 312.569 107.515 312.569 108.744C312.569 109.994 312.764 111.098 313.155 112.057C313.545 113.009 314.117 113.754 314.87 114.294C315.623 114.827 316.539 115.093 317.619 115.093ZM336.137 117.341C334.61 117.341 333.289 116.986 332.174 116.276C331.059 115.558 330.196 114.567 329.585 113.303C328.981 112.032 328.68 110.569 328.68 108.914C328.68 107.266 328.981 105.803 329.585 104.525C330.196 103.239 331.037 102.234 332.11 101.51C333.189 100.778 334.436 100.413 335.849 100.413C336.737 100.413 337.593 100.576 338.417 100.903C339.241 101.222 339.979 101.716 340.633 102.384C341.293 103.044 341.815 103.879 342.199 104.887C342.582 105.888 342.774 107.075 342.774 108.445V109.383H329.99V107.71H340.835C340.835 106.659 340.622 105.714 340.196 104.876C339.777 104.031 339.191 103.364 338.438 102.874C337.692 102.384 336.829 102.138 335.849 102.138C334.812 102.138 333.9 102.415 333.111 102.969C332.323 103.523 331.705 104.255 331.258 105.164C330.817 106.073 330.594 107.067 330.586 108.147V109.148C330.586 110.448 330.81 111.585 331.258 112.558C331.712 113.523 332.355 114.273 333.186 114.805C334.017 115.338 335.001 115.604 336.137 115.604C336.911 115.604 337.589 115.484 338.172 115.242C338.761 115.001 339.255 114.678 339.653 114.273C340.057 113.861 340.363 113.41 340.569 112.92L342.369 113.506C342.121 114.195 341.712 114.83 341.144 115.413C340.583 115.995 339.88 116.464 339.035 116.819C338.197 117.167 337.231 117.341 336.137 117.341ZM348.849 106.773V117H346.953V100.636H348.796V103.204H348.966C349.35 102.366 349.946 101.695 350.756 101.19C351.573 100.679 352.581 100.423 353.782 100.423C354.882 100.423 355.848 100.654 356.679 101.116C357.517 101.57 358.167 102.241 358.629 103.129C359.098 104.017 359.332 105.107 359.332 106.4V117H357.436V106.517C357.436 105.175 357.059 104.113 356.306 103.332C355.561 102.55 354.559 102.16 353.302 102.16C352.443 102.16 351.679 102.344 351.012 102.714C350.344 103.083 349.815 103.616 349.424 104.312C349.041 105.001 348.849 105.821 348.849 106.773ZM370.942 117.341C369.415 117.341 368.094 116.986 366.979 116.276C365.863 115.558 365.001 114.567 364.39 113.303C363.786 112.032 363.484 110.569 363.484 108.914C363.484 107.266 363.786 105.803 364.39 104.525C365.001 103.239 365.842 102.234 366.915 101.51C367.994 100.778 369.241 100.413 370.654 100.413C371.542 100.413 372.398 100.576 373.221 100.903C374.045 101.222 374.784 101.716 375.437 102.384C376.098 103.044 376.62 103.879 377.003 104.887C377.387 105.888 377.579 107.075 377.579 108.445V109.383H364.795V107.71H375.64C375.64 106.659 375.427 105.714 375.001 104.876C374.581 104.031 373.996 103.364 373.243 102.874C372.497 102.384 371.634 102.138 370.654 102.138C369.617 102.138 368.704 102.415 367.916 102.969C367.128 103.523 366.51 104.255 366.062 105.164C365.622 106.073 365.398 107.067 365.391 108.147V109.148C365.391 110.448 365.615 111.585 366.062 112.558C366.517 113.523 367.16 114.273 367.991 114.805C368.822 115.338 369.805 115.604 370.942 115.604C371.716 115.604 372.394 115.484 372.976 115.242C373.566 115.001 374.059 114.678 374.457 114.273C374.862 113.861 375.167 113.41 375.373 112.92L377.174 113.506C376.925 114.195 376.517 114.83 375.949 115.413C375.388 115.995 374.684 116.464 373.839 116.819C373.001 117.167 372.035 117.341 370.942 117.341ZM381.757 117V100.636H383.6V103.151H383.739C384.066 102.327 384.634 101.663 385.444 101.158C386.26 100.647 387.184 100.391 388.213 100.391C388.37 100.391 388.544 100.395 388.735 100.402C388.927 100.409 389.087 100.416 389.215 100.423V102.352C389.13 102.337 388.98 102.316 388.767 102.288C388.554 102.259 388.324 102.245 388.075 102.245C387.223 102.245 386.463 102.426 385.795 102.788C385.135 103.143 384.613 103.637 384.229 104.269C383.846 104.901 383.654 105.622 383.654 106.432V117H381.757ZM397.021 117.373C396.034 117.373 395.132 117.181 394.315 116.798C393.498 116.407 392.849 115.846 392.366 115.114C391.883 114.376 391.641 113.481 391.641 112.43C391.641 111.62 391.794 110.938 392.099 110.384C392.405 109.83 392.838 109.376 393.399 109.021C393.96 108.665 394.624 108.385 395.391 108.179C396.158 107.973 397.003 107.813 397.927 107.7C398.843 107.586 399.617 107.487 400.249 107.401C400.888 107.316 401.375 107.181 401.709 106.996C402.042 106.812 402.209 106.513 402.209 106.102V105.718C402.209 104.603 401.876 103.726 401.208 103.087C400.547 102.44 399.596 102.117 398.353 102.117C397.174 102.117 396.211 102.376 395.466 102.895C394.727 103.413 394.209 104.024 393.91 104.727L392.11 104.077C392.479 103.183 392.991 102.469 393.644 101.936C394.297 101.396 395.029 101.009 395.839 100.775C396.648 100.533 397.469 100.413 398.3 100.413C398.925 100.413 399.574 100.494 400.249 100.658C400.931 100.821 401.563 101.105 402.145 101.51C402.728 101.908 403.2 102.465 403.562 103.183C403.925 103.893 404.106 104.795 404.106 105.888V117H402.209V114.411H402.092C401.865 114.894 401.528 115.363 401.08 115.817C400.633 116.272 400.072 116.645 399.397 116.936C398.722 117.227 397.93 117.373 397.021 117.373ZM397.277 115.636C398.285 115.636 399.159 115.413 399.898 114.965C400.636 114.518 401.204 113.925 401.602 113.186C402.007 112.44 402.209 111.62 402.209 110.725V108.36C402.067 108.495 401.829 108.616 401.496 108.722C401.169 108.829 400.789 108.925 400.356 109.01C399.93 109.088 399.503 109.156 399.077 109.212C398.651 109.269 398.268 109.319 397.927 109.362C397.003 109.475 396.215 109.653 395.562 109.894C394.908 110.136 394.407 110.469 394.059 110.896C393.711 111.315 393.537 111.854 393.537 112.515C393.537 113.509 393.893 114.28 394.603 114.827C395.313 115.366 396.204 115.636 397.277 115.636ZM415.595 100.636V102.288H407.786V100.636H415.595ZM410.226 96.7159H412.133V112.728C412.133 113.41 412.25 113.946 412.485 114.337C412.719 114.72 413.024 114.994 413.401 115.157C413.777 115.313 414.178 115.391 414.605 115.391C414.853 115.391 415.066 115.377 415.244 115.349C415.421 115.313 415.578 115.278 415.713 115.242L416.117 116.957C415.933 117.028 415.705 117.092 415.436 117.149C415.166 117.213 414.832 117.245 414.434 117.245C413.738 117.245 413.067 117.092 412.421 116.787C411.781 116.482 411.256 116.027 410.844 115.423C410.432 114.82 410.226 114.07 410.226 113.175V96.7159ZM426.086 117.341C424.673 117.341 423.423 116.982 422.336 116.265C421.257 115.548 420.412 114.557 419.801 113.293C419.19 112.021 418.885 110.555 418.885 108.893C418.885 107.217 419.19 105.743 419.801 104.472C420.412 103.193 421.257 102.199 422.336 101.489C423.423 100.771 424.673 100.413 426.086 100.413C427.5 100.413 428.746 100.771 429.826 101.489C430.905 102.206 431.75 103.2 432.361 104.472C432.979 105.743 433.288 107.217 433.288 108.893C433.288 110.555 432.983 112.021 432.372 113.293C431.761 114.557 430.912 115.548 429.826 116.265C428.746 116.982 427.5 117.341 426.086 117.341ZM426.086 115.604C427.223 115.604 428.185 115.299 428.973 114.688C429.762 114.077 430.358 113.264 430.763 112.249C431.175 111.233 431.381 110.114 431.381 108.893C431.381 107.671 431.175 106.549 430.763 105.526C430.358 104.504 429.762 103.683 428.973 103.065C428.185 102.447 427.223 102.138 426.086 102.138C424.957 102.138 423.995 102.447 423.199 103.065C422.411 103.683 421.811 104.504 421.399 105.526C420.994 106.549 420.792 107.671 420.792 108.893C420.792 110.114 420.994 111.233 421.399 112.249C421.811 113.264 422.411 114.077 423.199 114.688C423.988 115.299 424.95 115.604 426.086 115.604ZM437.451 117V100.636H439.294V103.151H439.432C439.759 102.327 440.327 101.663 441.137 101.158C441.954 100.647 442.877 100.391 443.907 100.391C444.063 100.391 444.237 100.395 444.429 100.402C444.621 100.409 444.78 100.416 444.908 100.423V102.352C444.823 102.337 444.674 102.316 444.461 102.288C444.248 102.259 444.017 102.245 443.768 102.245C442.916 102.245 442.156 102.426 441.488 102.788C440.828 103.143 440.306 103.637 439.922 104.269C439.539 104.901 439.347 105.622 439.347 106.432V117H437.451Z" />
</svg>
